<?xml version="1.0" standalone="no"?>
<!DOCTYPE svg PUBLIC "-//W3C//DTD SVG 20010904//EN"
 "http://www.w3.org/TR/2001/REC-SVG-20010904/DTD/svg10.dtd">
<svg version="1.0" xmlns="http://www.w3.org/2000/svg"
 width="784.000000pt" height="784.000000pt" viewBox="0 0 784.000000 784.000000"
 preserveAspectRatio="xMidYMid meet">
<metadata>
Created by potrace 1.14, written by Peter Selinger 2001-2017
</metadata>
<g transform="translate(0.000000,784.000000) scale(0.100000,-0.100000)"
fill="#000000" stroke="none">
<path d="M3665 7651 c-162 -36 -352 -146 -477 -274 -123 -125 -244 -325 -278
-457 -52 -201 -66 -374 -44 -536 8 -55 17 -119 20 -144 16 -117 106 -348 194
-500 149 -256 361 -438 595 -512 85 -27 115 -32 200 -32 179 0 362 68 512 188
228 184 397 461 497 816 36 128 43 451 12 598 -14 67 -91 265 -124 322 -167
278 -379 451 -648 526 -92 26 -357 29 -459 5z"/>
<path d="M2890 5146 c-69 -35 -145 -75 -170 -89 -25 -15 -58 -34 -74 -43 -38
-21 -167 -116 -236 -173 -139 -116 -340 -322 -340 -350 0 -9 311 -17 485 -12
17 0 731 1 1588 1 1026 1 1557 4 1557 11 0 13 -72 92 -175 192 -185 181 -426
352 -652 463 -72 35 -133 64 -136 64 -2 0 -27 -20 -53 -45 -65 -61 -226 -168
-316 -210 -95 -45 -246 -91 -343 -104 -325 -46 -662 70 -955 327 -21 17 -41
32 -46 31 -5 0 -65 -29 -134 -63z"/>
<path d="M1200 4108 c-26 -14 -53 -37 -65 -58 -20 -35 -20 -49 -23 -1878 -2
-1828 -2 -1843 18 -1882 13 -25 37 -49 67 -67 l48 -28 2643 -2 c2830 -3 2663
-6 2718 44 11 10 32 34 47 55 l28 36 0 1816 0 1817 -24 52 c-14 32 -40 66 -64
85 l-41 32 -2654 0 -2654 0 -44 -22z"/>
</g>
</svg>
